Coordinates
version=1
nRows=29
nColumns=24
inDegrees=yes

Units are S.I. units (second, meters, Newtons, ...)
Angles are in degrees.

endheader
time	pelvis_tilt	pelvis_list	pelvis_rotation	pelvis_tx	pelvis_ty	pelvis_tz	hip_flexion_r	hip_adduction_r	hip_rotation_r	knee_angle_r	ankle_angle_r	subtalar_angle_r	mtp_angle_r	hip_flexion_l	hip_adduction_l	hip_rotation_l	knee_angle_l	ankle_angle_l	subtalar_angle_l	mtp_angle_l	lumbar_extension	lumbar_bending	lumbar_rotation
      2.00500000	     -6.45376947	     -2.37845371	      2.68840187	      0.38785064	      1.28460476	     -0.87812918	     11.84378532	      7.32484425	     14.37347439	     -7.15530146	     -2.51792022	    -12.00636538	     -1.61912211	     25.58203743	      1.59472815	     -3.54467050	    -57.08590047	     -7.23461042	    -27.36948766	      6.35552882	     -0.67316921	      5.13762495	     -1.76050174
      2.01000000	     -6.34338136	     -2.38333117	      2.61105506	      0.39319277	      1.28494451	     -0.87810156	     11.07358856	      7.31052614	     14.58974910	     -6.70722401	     -2.37183941	    -11.99103027	     -1.60637220	     26.08702625	      1.75962438	     -3.26387329	    -56.32619368	     -6.59038850	    -27.52618753	      6.54670628	     -0.80112138	      5.11020074	     -1.62411940
      2.01500000	     -6.24540622	     -2.44662751	      2.60837951	      0.39869571	      1.28517086	     -0.87822845	     10.30628315	      7.34178276	     14.77083075	     -6.27068220	     -2.25112982	    -12.20894264	     -1.60560019	     26.57219579	      1.91972078	     -2.87223255	    -55.48174148	     -6.14769592	    -27.56306059	      6.81478747	     -0.88821480	      5.13457810	     -1.61331849
      2.02000000	     -6.14641661	     -2.49700445	      2.60185532	      0.40429556	      1.28537676	     -0.87830985	      9.46852782	      7.35673825	     15.04146221	     -5.72454822	     -2.10995008	    -12.35603921	     -1.58492030	     26.99960737	      2.09715250	     -2.46203285	    -54.53927300	     -5.67410434	    -27.64830039	      6.79036142	     -0.95822155	      5.18722276	     -1.63757669
      2.02500000	     -6.02284642	     -2.53744397	      2.55684233	      0.40989425	      1.28555096	     -0.87823090	      8.50097595	      7.34992729	     15.46564798	     -4.92413647	     -2.29607753	    -13.03453252	     -1.40419834	     27.38451370	      2.20771870	     -2.13010401	    -53.53616468	     -5.10580854	    -27.34094489	      6.78613719	     -1.06528933	      5.20145027	     -1.56049819
      2.03000000	     -5.86662277	     -2.61730350	      2.58885032	      0.41525702	      1.28566026	     -0.87837718	      7.52785554	      7.34753129	     15.84007758	     -4.19461373	     -2.35300655	    -13.44780651	     -1.40062728	     27.79163560	      2.33494015	     -1.66931654	    -52.53156806	     -4.71013996	    -27.42909287	      6.88412217	     -1.25058775	      5.26486351	     -1.62559354
      2.03500000	     -5.80528734	     -2.74161229	      2.60194300	      0.42072927	      1.28554307	     -0.87855309	      6.71509763	      7.39665850	     16.04074074	     -3.56914275	     -2.30928479	    -13.53045557	     -1.38889251	     28.29779550	      2.42933898	     -1.21256659	    -51.53031305	     -4.44238738	    -27.52910782	      7.02874566	     -1.30914499	      5.39691380	     -1.63150510
      2.04000000	     -5.71318864	     -2.80489019	      2.56607902	      0.42612007	      1.28547757	     -0.87867654	      5.84464027	      7.40282885	     16.33208466	     -2.89289131	     -2.32679243	    -13.83073591	     -1.34005984	     28.68005371	      2.54242129	     -0.81614745	    -50.39068205	     -4.16185178	    -27.54080761	      7.24541654	     -1.42708766	      5.45914032	     -1.61358331
      2.04500000	     -5.60490258	     -2.81563407	      2.56390225	      0.43152791	      1.28539233	     -0.87883738	      5.00848830	      7.33942726	     16.45622373	     -2.30343395	     -2.25163023	    -14.02556787	     -1.20249573	     28.94527654	      2.70828654	     -0.40267988	    -49.07355941	     -3.65005355	    -27.23172013	      7.44824226	     -1.54465341	      5.45476400	     -1.65482390
      2.05000000	     -5.49375053	     -2.87445052	      2.50527089	      0.43688813	      1.28523235	     -0.87893805	      4.15268731	      7.32006781	     16.66307346	     -1.67926475	     -2.08848815	    -13.92093711	     -1.10852291	     29.19960478	      2.78768922	     -0.05993615	    -47.72197161	     -3.51718260	    -27.39891467	      7.37984227	     -1.68261026	      5.52303670	     -1.53480818
      2.05500000	     -5.29689361	     -2.98062193	      2.60933172	      0.44235186	      1.28508443	     -0.87926379	      3.14402320	      7.33024393	     16.35896797	     -0.91877243	     -1.98677737	    -13.61449564	     -0.84353294	     29.38744073	      2.88549230	      0.45724152	    -46.34892090	     -3.78000428	    -28.07191135	      7.02442618	     -1.87145539	      5.60079882	     -1.62981546
      2.06000000	     -5.14677733	     -3.07897144	      2.61434959	      0.44772463	      1.28484517	     -0.87940316	      2.22350861	      7.37514152	     16.20830301	     -0.22706521	     -2.03361402	    -13.56260420	     -0.69427329	     29.56183806	      2.91732145	      0.89856906	    -44.87133953	     -3.38287350	    -28.21747680	      7.10480470	     -2.04419227	      5.68531978	     -1.64167334
      2.06500000	     -5.02167041	     -3.14573577	      2.63829737	      0.45308638	      1.28448986	     -0.87957096	      1.36542808	      7.39141722	     15.89002898	      0.40031634	     -1.87863697	    -13.37541555	     -0.46434620	     29.72085170	      2.98066900	      1.30257980	    -43.35303200	     -3.14439851	    -28.05338804	      7.24230363	     -2.17772304	      5.71856156	     -1.65880072
      2.07000000	     -4.95113605	     -3.25179346	      2.62619162	      0.45844893	      1.28402215	     -0.87971939	      0.62555356	      7.48693818	     15.60257054	      0.88760431	     -1.58119560	    -13.13807618	     -0.35577628	     29.98017782	      2.94645778	      1.64782320	    -41.91249786	     -3.01754775	    -27.65078428	      7.46700920	     -2.26421192	      5.80243013	     -1.61313932
      2.07500000	     -4.90833346	     -3.34175632	      2.64516658	      0.46376896	      1.28342440	     -0.87991057	     -0.09580400	      7.56476948	     15.24791623	      1.41021904	     -1.48961864	    -12.93408449	     -0.34839159	     30.22155032	      2.96931480	      2.11888559	    -40.37219416	     -2.80246141	    -26.98157212	      7.63972188	     -2.32168071	      5.86185281	     -1.65199405
      2.08000000	     -4.86510194	     -3.42136902	      2.61694665	      0.46898093	      1.28276788	     -0.88003720	     -0.66260104	      7.66287839	     14.89838421	      1.63704944	     -1.04382823	    -12.52990207	     -0.47276011	     30.44057876	      2.94615426	      2.52846571	    -38.80866262	     -2.46907799	    -26.31136683	      7.84980362	     -2.40489045	      5.94482504	     -1.73390696
      2.08500000	     -4.89074692	     -3.53777908	      2.52795688	      0.47410863	      1.28200279	     -0.87994984	     -1.05491711	      7.82600492	     14.55384347	      1.68944210	     -0.43272829	    -11.88622888	     -0.81682980	     30.73048199	      2.82583831	      2.83200783	    -37.18861264	     -2.27321456	    -25.89036051	      8.30559697	     -2.43607419	      6.01103355	     -1.60036457
      2.09000000	     -4.86924719	     -3.67523828	      2.39433073	      0.47921289	      1.28127842	     -0.87975751	     -1.46550841	      8.03004470	     14.32649335	      1.70023004	      0.02754337	    -11.46082118	     -0.80958262	     30.92941104	      2.61454324	      3.01290083	    -35.53863380	     -2.04735349	    -25.07046882	      8.54700029	     -2.51631731	      6.09639010	     -1.46633649
      2.09500000	     -4.83021912	     -3.84128341	      2.30852104	      0.48439848	      1.28054891	     -0.87982166	     -1.91026952	      8.23093487	     13.95646174	      1.72344068	      0.50014680	    -10.73526937	     -0.72282297	     31.07980364	      2.39957717	      3.23056233	    -33.85957776	     -1.89179779	    -24.25029193	      8.59709055	     -2.61818118	      6.23138888	     -1.45145583
      2.10000000	     -4.77549336	     -4.00450752	      2.27802899	      0.48963880	      1.27977914	     -0.87983916	     -2.51786539	      8.41281343	     13.54778080	      2.03821035	      0.79772566	    -10.25126630	     -0.53121533	     31.18291405	      2.21026522	      3.50342353	    -32.15495113	     -1.88913515	    -23.54288764	      8.77644280	     -2.70662450	      6.35027482	     -1.40148873
      2.10500000	     -4.75616625	     -4.19019972	      2.24985041	      0.49491522	      1.27894701	     -0.87988628	     -3.03464260	      8.62873769	     12.97668133	      2.25047669	      1.29866168	     -9.24117721	     -0.04386242	     31.30208666	      1.99535109	      3.79860901	    -30.44291664	     -1.70578324	    -22.62834559	      9.14485976	     -2.73235542	      6.48615990	     -1.43370177
      2.11000000	     -4.64028509	     -4.31555057	      2.10877861	      0.50003512	      1.27820619	     -0.87957755	     -3.60331757	      8.79640043	     12.85272983	      2.37704466	      1.57949256	     -8.78755256	      0.24882105	     31.23510492	      1.71270255	      3.81163559	    -28.60128509	     -1.77316151	    -22.04817846	      9.26781872	     -2.95477016	      6.52284161	     -1.35567589
      2.11500000	     -4.64784737	     -4.47725061	      2.04626319	      0.50545572	      1.27725936	     -0.87958068	     -3.98819918	      9.00618011	     12.35585214	      2.35550144	      2.15323435	     -7.87781855	      0.63526656	     31.30235592	      1.49279864	      3.96218962	    -26.82111248	     -1.99966075	    -21.94250486	      9.41403585	     -2.94976334	      6.65648481	     -1.31618015
      2.12000000	     -4.68694712	     -4.66464410	      1.84730589	      0.51059758	      1.27624493	     -0.87949259	     -4.25553099	      9.25469956	     12.46037412	      2.18200578	      2.64911529	     -7.71305589	      0.70891507	     31.39324174	      1.15238095	      3.97038512	    -25.04741470	     -2.23081390	    -21.42880768	      9.60231005	     -3.00081043	      6.83131074	     -1.20012158
      2.12500000	     -4.71399010	     -4.87883343	      1.71206900	      0.51573507	      1.27519961	     -0.87936059	     -4.52628563	      9.51846184	     12.39390623	      2.00550586	      3.14508028	     -7.36159899	      0.87166500	     31.47365628	      0.80799034	      4.06801948	    -23.34304251	     -2.27234154	    -20.74578290	      9.82903693	     -3.03258452	      6.96188954	     -1.09916669
      2.13000000	     -4.82776299	     -5.09351581	      1.55488145	      0.52095780	      1.27406777	     -0.87934697	     -4.69924366	      9.76987304	     12.37952618	      1.81722858	      3.76732787	     -6.78347252	      1.42606187	     31.60349638	      0.48253451	      4.21516082	    -21.60282763	     -2.46717595	    -20.48573418	      9.88769733	     -2.96748393	      7.14600261	     -1.02962367
      2.13500000	     -4.93435197	     -5.26796824	      1.40357429	      0.52621392	      1.27290944	     -0.87920559	     -4.94010162	      9.97749510	     12.57579564	      1.74322865	      4.00029031	     -6.59622972	      1.41267257	     31.72528794	      0.16698384	      4.26382059	    -19.93316983	     -2.64030455	    -20.20666770	      9.88931576	     -2.90622220	      7.28392371	     -1.00443275
      2.14000000	     -4.92924803	     -5.41774338	      1.35169279	      0.53157766	      1.27182693	     -0.87925214	     -5.28938151	     10.15870708	     12.35222507	      1.61441507	      4.47677199	     -5.84651332	      1.34403546	     31.68172354	     -0.06851200	      4.38798110	    -18.24569446	     -2.73051672	    -20.13686606	     10.12910660	     -2.94812118	      7.34637965	     -1.02429140
      2.14500000	     -5.02747448	     -5.61805929	      1.21559823	      0.53682788	      1.27074116	     -0.87931558	     -5.51623014	     10.37504473	     12.46384979	      1.49117985	      4.80996594	     -5.72395550	      1.38103464	     31.73378746	     -0.40108416	      4.45743133	    -16.58901485	     -2.82979124	    -19.93403420	     10.16461584	     -2.89522482	      7.50982455	     -0.97309756
